<svg width="402" height="407" viewBox="0 0 402 407" fill="none" xmlns="http://www.w3.org/2000/svg">
<path d="M115.5 210L100.318 151.297L55 200.339M81.4553 286.477L46 229.262M168.85 221.088L100.318 288.992M163 107.501L224.5 98.001M271.336 185.249L326.036 229.262M215.377 270.13L267.563 288.992M97 303.001L143.5 329.5L197.773 275.16M348.671 171.417L337.982 222.345M259.389 151.297L275.108 72.7049L244 89.001M172.623 200.339L154 120.501" stroke="white" stroke-opacity="0.56" stroke-dasharray="12 12"/>
<path d="M272.41 181.3C266.654 189.136 255.635 190.822 247.799 185.066C239.963 179.31 238.277 168.292 244.033 160.456C249.789 152.62 260.808 150.934 268.644 156.69C276.48 162.446 278.166 173.464 272.41 181.3Z" fill="url(#paint0_linear_119_106)"/>
<circle cx="283.371" cy="296.627" r="17.6048" transform="rotate(36.3002 283.371 296.627)" fill="url(#paint1_linear_119_106)"/>
<circle cx="42.3249" cy="213.012" r="17.6048" transform="rotate(36.3002 42.3249 213.012)" fill="url(#paint2_linear_119_106)"/>
<circle cx="90.4886" cy="294.882" r="10.0599" transform="rotate(36.3002 90.4886 294.882)" fill="url(#paint3_linear_119_106)"/>
<circle cx="204.326" cy="266.481" r="10.0599" transform="rotate(36.3002 204.326 266.481)" fill="url(#paint4_radial_119_106)"/>
<circle cx="233.535" cy="92.901" r="10.0599" transform="rotate(36.3002 233.535 92.901)" fill="url(#paint5_radial_119_106)"/>
<circle cx="350.063" cy="160.064" r="10.0599" transform="rotate(36.3002 350.063 160.064)" fill="url(#paint6_radial_119_106)"/>
<circle cx="175.368" cy="212.443" r="10.0599" transform="rotate(36.3002 175.368 212.443)" fill="url(#paint7_radial_119_106)"/>
<circle cx="119.063" cy="221.063" r="10.0599" transform="rotate(36.3002 119.063 221.063)" fill="url(#paint8_radial_119_106)"/>
<circle cx="335.954" cy="233.152" r="10.0599" transform="rotate(36.3002 335.954 233.152)" fill="url(#paint9_radial_119_106)"/>
<circle cx="152.466" cy="109.803" r="10.0599" transform="rotate(36.3002 152.466 109.803)" fill="url(#paint10_radial_119_106)"/>
<defs>
<linearGradient id="paint0_linear_119_106" x1="268.821" y1="171.417" x2="258.761" y2="191.537" gradientUnits="userSpaceOnUse">
<stop stop-color="white"/>
<stop offset="1" stop-color="white" stop-opacity="0"/>
</linearGradient>
<linearGradient id="paint1_linear_119_106" x1="277.053" y1="287.114" x2="283.843" y2="312.254" gradientUnits="userSpaceOnUse">
<stop stop-color="white"/>
<stop offset="1" stop-color="white" stop-opacity="0"/>
</linearGradient>
<linearGradient id="paint2_linear_119_106" x1="46.4814" y1="218.42" x2="48.996" y2="193.168" gradientUnits="userSpaceOnUse">
<stop stop-color="white"/>
<stop offset="1" stop-color="white" stop-opacity="0"/>
</linearGradient>
<linearGradient id="paint3_linear_119_106" x1="84.0248" y1="296.521" x2="100.526" y2="309.371" gradientUnits="userSpaceOnUse">
<stop stop-color="#ACC8FF"/>
<stop offset="1" stop-color="#9D81DA" stop-opacity="0"/>
</linearGradient>
<radialGradient id="paint4_radial_119_106" cx="0" cy="0" r="1" gradientUnits="userSpaceOnUse" gradientTransform="translate(204.326 266.481) rotate(90) scale(10.0599)">
<stop stop-color="#BAC1FF"/>
<stop offset="1" stop-color="#99A3FF" stop-opacity="0.21"/>
</radialGradient>
<radialGradient id="paint5_radial_119_106" cx="0" cy="0" r="1" gradientUnits="userSpaceOnUse" gradientTransform="translate(233.535 92.901) rotate(90) scale(10.0599)">
<stop stop-color="#BAC1FF"/>
<stop offset="1" stop-color="#99A3FF" stop-opacity="0.21"/>
</radialGradient>
<radialGradient id="paint6_radial_119_106" cx="0" cy="0" r="1" gradientUnits="userSpaceOnUse" gradientTransform="translate(350.063 160.064) rotate(90) scale(10.0599)">
<stop stop-color="#BAC1FF"/>
<stop offset="1" stop-color="#99A3FF" stop-opacity="0.21"/>
</radialGradient>
<radialGradient id="paint7_radial_119_106" cx="0" cy="0" r="1" gradientUnits="userSpaceOnUse" gradientTransform="translate(175.368 212.443) rotate(90) scale(10.0599)">
<stop stop-color="#BAC1FF"/>
<stop offset="1" stop-color="#99A3FF" stop-opacity="0.21"/>
</radialGradient>
<radialGradient id="paint8_radial_119_106" cx="0" cy="0" r="1" gradientUnits="userSpaceOnUse" gradientTransform="translate(119.063 221.063) rotate(90) scale(10.0599)">
<stop stop-color="#BAC1FF"/>
<stop offset="1" stop-color="#99A3FF" stop-opacity="0.21"/>
</radialGradient>
<radialGradient id="paint9_radial_119_106" cx="0" cy="0" r="1" gradientUnits="userSpaceOnUse" gradientTransform="translate(335.954 233.152) rotate(90) scale(10.0599)">
<stop stop-color="#BAC1FF"/>
<stop offset="1" stop-color="#99A3FF" stop-opacity="0.21"/>
</radialGradient>
<radialGradient id="paint10_radial_119_106" cx="0" cy="0" r="1" gradientUnits="userSpaceOnUse" gradientTransform="translate(152.466 109.803) rotate(90) scale(10.0599)">
<stop stop-color="#BAC1FF"/>
<stop offset="1" stop-color="#99A3FF" stop-opacity="0.21"/>
</radialGradient>
</defs>
</svg>
