<svg width="473" height="241" viewBox="0 0 473 241" fill="none" xmlns="http://www.w3.org/2000/svg">
<rect x="0.225098" y="0.443359" width="471.799" height="217.753" fill="url(#paint0_linear_60_73)"/>
<path d="M370.713 137.328C381.613 173.007 369.73 208.261 344.171 216.069C318.612 223.878 289.057 201.284 278.156 165.605C267.256 129.925 268.313 94.5673 296.013 58.4343C337.007 73.5808 359.813 101.649 370.713 137.328Z" fill="white" fill-opacity="0.5"/>
<path d="M350.51 125.137C375.694 152.661 380.127 189.598 360.41 207.639C340.693 225.68 304.294 217.992 279.109 190.468C253.925 162.945 239.674 130.568 249.142 86.0351C292.666 82.0801 325.325 97.6129 350.51 125.137Z" fill="white" fill-opacity="0.5"/>
<path d="M397.786 192.099C371.533 218.606 334.858 224.848 315.87 206.041C296.882 187.235 302.772 150.501 329.026 123.995C355.279 97.4887 386.916 81.6636 431.86 88.933C437.949 132.21 424.04 165.593 397.786 192.099Z" fill="white" fill-opacity="0.5"/>
<path d="M400.836 160.628C391.788 196.821 363.435 220.907 337.508 214.426C311.581 207.944 297.898 173.349 306.946 137.156C315.994 100.963 335.123 71.2072 377.483 54.5194C404.807 88.6275 409.884 124.434 400.836 160.628Z" fill="white" fill-opacity="0.5"/>
<path d="M387.343 150.149C387.343 187.456 365.678 217.699 338.953 217.699C312.228 217.699 290.563 187.456 290.563 150.149C290.563 112.842 301.905 79.335 338.953 52.8719C373.733 79.335 387.343 112.842 387.343 150.149Z" fill="url(#paint1_diamond_60_73)"/>
<path d="M118.792 51.8029C125.131 52.8779 129.704 59.421 128.934 63.9614C128.164 68.5019 125.233 62.2678 118.894 61.1929C112.644 60.9685 105.673 61.1371 100.871 57.2213C106.369 52.0748 112.454 50.728 118.792 51.8029Z" fill="url(#paint2_diamond_60_73)" fill-opacity="0.8"/>
<path d="M96.2519 165.531C83.4644 166.872 71.3021 155.099 70.3419 145.938C69.3816 136.778 85.3371 148.286 98.1246 146.945C110.284 144.014 116.5 140.491 127.856 145.45C120.035 158.322 109.039 164.191 96.2519 165.531Z" fill="url(#paint3_diamond_60_73)" fill-opacity="0.6"/>
<path d="M195.619 107.992C203.355 106.367 211.536 111.793 212.7 117.334C213.865 122.876 203.542 117.121 195.806 118.746C188.554 121.305 184.438 122.951 176.544 122.954C180.516 114.589 187.883 109.618 195.619 107.992Z" fill="url(#paint4_diamond_60_73)"/>
<defs>
<linearGradient id="paint0_linear_60_73" x1="0.225104" y1="20.8577" x2="441.781" y2="218.197" gradientUnits="userSpaceOnUse">
<stop stop-color="#44BDE3"/>
<stop offset="1" stop-color="#80F0B4"/>
</linearGradient>
<radialGradient id="paint1_diamond_60_73" cx="0" cy="0" r="1" gradientUnits="userSpaceOnUse" gradientTransform="translate(338.953 92.686) rotate(90) scale(303.948 178.465)">
<stop stop-color="white"/>
<stop offset="1" stop-color="white" stop-opacity="0"/>
</radialGradient>
<radialGradient id="paint2_diamond_60_73" cx="0" cy="0" r="1" gradientUnits="userSpaceOnUse" gradientTransform="translate(107.571 59.928) rotate(9.62528) scale(52.3764 30.7531)">
<stop stop-color="white"/>
<stop offset="1" stop-color="white" stop-opacity="0"/>
</radialGradient>
<radialGradient id="paint3_diamond_60_73" cx="0" cy="0" r="1" gradientUnits="userSpaceOnUse" gradientTransform="translate(113.495 143.841) rotate(174.016) scale(104.753 61.5062)">
<stop stop-color="white"/>
<stop offset="1" stop-color="white" stop-opacity="0"/>
</radialGradient>
<radialGradient id="paint4_diamond_60_73" cx="0" cy="0" r="1" gradientUnits="userSpaceOnUse" gradientTransform="translate(185.812 120.53) rotate(-11.867) scale(64.4021 37.8141)">
<stop stop-color="white"/>
<stop offset="1" stop-color="white" stop-opacity="0"/>
</radialGradient>
</defs>
</svg>
