<svg width="48" height="98" viewBox="0 0 48 98" fill="none" xmlns="http://www.w3.org/2000/svg">
<path d="M23.2671 93.3373C22.8244 82.7301 22.7157 72.1131 22.6881 61.4941C22.2386 61.5226 20.6689 61.5226 20.2194 61.4941C14.5335 77.3329 16.5654 75.4047 11.8335 93.3313C11.5825 99.3256 3.15812 99.3592 3.41109 93.3412C3.98028 79.8011 11.8335 51.9841 11.8335 51.9841V34.7758C9.77736 39.7152 6.59088 45.1077 7.27058 50.4147C7.82791 55.6481 0.722861 54.419 0.171455 49.2389C-1.09737 37.2582 4.64377 22.7219 18.4724 21.1309L24.8343 21.0538C39.3625 22.0617 49.1818 38.187 47.8853 50.4147C47.3359 55.5928 39.8112 55.6442 40.3685 50.4147C40.3685 45.7403 38.0717 34.7758 31.8582 33.8785C31.789 39.7582 32.3453 51.9841 32.3453 51.9841C32.3453 51.9841 32.1942 79.7913 32.7653 93.3313C32.8052 93.9367 32.7149 94.5436 32.4999 95.111C32.285 95.6784 31.9505 96.193 31.5195 96.62C31.0885 97.047 30.5713 97.3766 30.002 97.5863C29.4327 97.796 28.8246 97.8809 28.2196 97.8355C27.5979 97.8703 26.9758 97.7811 26.3889 97.5731C25.802 97.365 25.2624 97.0423 24.8015 96.6236C24.3405 96.205 23.9672 95.6989 23.7038 95.1346C23.4404 94.5704 23.2921 93.9594 23.2671 93.3373ZM15.8309 8.90747C15.8309 7.14574 16.3532 5.42357 17.332 3.95875C18.3107 2.49392 19.702 1.35222 21.3296 0.678038C22.9572 0.00385296 24.7482 -0.172536 26.476 0.171161C28.2039 0.514858 29.7915 1.36322 31.0372 2.60896C32.283 3.85469 33.1312 5.44183 33.4749 7.16971C33.8186 8.89759 33.6419 10.6886 32.9678 12.3162C32.2936 13.9439 31.152 15.335 29.6872 16.3138C28.2223 17.2925 26.5003 17.8149 24.7385 17.8149C23.5688 17.8149 22.4103 17.5845 21.3296 17.1369C20.2489 16.6893 19.267 16.0331 18.4398 15.206C17.6127 14.3789 16.9565 13.3969 16.5088 12.3162C16.0612 11.2355 15.8309 10.0772 15.8309 8.90747Z" fill="url(#paint0_linear_127_61)"/>
<defs>
<linearGradient id="paint0_linear_127_61" x1="24" y1="0" x2="24" y2="152" gradientUnits="userSpaceOnUse">
<stop stop-color="#BAC1FF"/>
<stop offset="1" stop-color="#9D81DA" stop-opacity="0"/>
</linearGradient>
</defs>
</svg>
