<svg width="114" height="99" viewBox="0 0 114 99" fill="none" xmlns="http://www.w3.org/2000/svg">
<path d="M49.6121 8.60043C38.3457 -2.78331 19.9842 -2.87844 8.60043 8.38793C-2.78331 19.6543 -2.87844 38.0158 8.38793 49.3996L49.6121 8.60043ZM57 57.2917L36.3879 77.6912L57 98.518L77.6121 77.6912L57 57.2917ZM105.612 49.3996C116.878 38.0158 116.783 19.6543 105.4 8.38793C94.0158 -2.87844 75.6543 -2.78331 64.3879 8.60043L105.612 49.3996ZM8.38793 49.3996L36.3879 77.6912L77.6121 36.8921L49.6121 8.60043L8.38793 49.3996ZM77.6121 77.6912L105.612 49.3996L64.3879 8.60043L36.3879 36.8921L77.6121 77.6912Z" fill="url(#paint0_linear_71_170)"/>
<defs>
<linearGradient id="paint0_linear_71_170" x1="7.06666" y1="12.6667" x2="117.2" y2="121.867" gradientUnits="userSpaceOnUse">
<stop stop-color="#F257AB"/>
<stop offset="1" stop-color="#EE5A98" stop-opacity="0"/>
</linearGradient>
</defs>
</svg>
