<svg width="227" height="227" viewBox="0 0 227 227" fill="none" xmlns="http://www.w3.org/2000/svg">
<path d="M48.3512 172.393C47.4593 173.199 47.3877 174.577 48.2149 175.449C60.5724 188.479 76.5593 197.528 94.128 201.404C112.406 205.436 131.486 203.669 148.713 196.349C165.94 189.03 180.456 176.521 190.24 160.565C199.645 145.228 204.229 127.439 203.427 109.499C203.374 108.298 202.332 107.393 201.132 107.475C199.933 107.558 199.031 108.597 199.083 109.798C199.824 126.835 195.461 143.724 186.529 158.289C177.218 173.474 163.404 185.377 147.011 192.343C130.617 199.309 112.46 200.99 95.0658 197.153C78.3813 193.472 63.1957 184.889 51.446 172.53C50.6177 171.659 49.2432 171.587 48.3512 172.393Z" fill="url(#paint0_linear_145_108)"/>
<path d="M74.558 149.2L97.0001 175.745L121.5 158.745L142 192.745L142 135L154.5 149.2L197.5 107.5" stroke="white" stroke-opacity="0.7" stroke-dasharray="8 8"/>
<ellipse cx="60.7696" cy="125.42" rx="9.00835" ry="9.00835" transform="rotate(36.3002 60.7696 125.42)" fill="url(#paint1_linear_145_108)" fill-opacity="0.85"/>
<path fill-rule="evenodd" clip-rule="evenodd" d="M81.3451 128.035C81.1085 120.006 76.1276 113.638 70.2201 113.812C64.3126 113.986 59.7154 120.636 59.952 128.665C59.9643 129.084 59.9896 129.499 60.0273 129.909C58.9621 129.838 57.8314 129.93 56.6879 130.207C52.1294 131.31 49.093 134.927 49.9058 138.288C50.7186 141.648 55.0729 143.478 59.6314 142.375C61.5089 141.921 63.1282 141.04 64.3268 139.926C66.2119 141.849 68.5603 142.962 71.077 142.888C73.6108 142.814 75.9035 141.548 77.6772 139.492C79.12 140.87 81.2806 141.839 83.7548 142.046C88.4284 142.438 92.4511 139.962 92.7397 136.517C93.0283 133.072 89.4735 129.962 84.8 129.571C83.5763 129.468 82.3972 129.562 81.3181 129.819C81.3534 129.233 81.3629 128.638 81.3451 128.035Z" fill="url(#paint2_linear_145_108)"/>
<path d="M126.04 104.486C126.04 94.8444 132.747 87.0281 141.02 87.0281C149.293 87.0281 156 94.8444 156 104.486C156 114.128 151.934 117.924 141.02 129.627C130.106 118.392 126.04 114.128 126.04 104.486Z" fill="url(#paint3_diamond_145_108)"/>
<ellipse cx="141.125" cy="103.273" rx="5.45455" ry="5.45455" transform="rotate(36.3002 141.125 103.273)" fill="#C496FF"/>
<circle cx="44.7856" cy="168.786" r="7" transform="rotate(36.3002 44.7856 168.786)" fill="#C496FF"/>
<path d="M212.854 101.859C208.277 108.091 199.514 109.432 193.283 104.854C187.052 100.277 185.711 91.5144 190.288 85.283C194.866 79.0516 203.628 77.7108 209.86 82.2882C216.091 86.8657 217.432 95.628 212.854 101.859Z" fill="url(#paint4_linear_145_108)"/>
<defs>
<linearGradient id="paint0_linear_145_108" x1="61.8101" y1="190.199" x2="235.311" y2="65.6168" gradientUnits="userSpaceOnUse">
<stop stop-color="white"/>
<stop offset="1" stop-color="white" stop-opacity="0.3"/>
</linearGradient>
<linearGradient id="paint1_linear_145_108" x1="57.862" y1="125.069" x2="69.7541" y2="126.313" gradientUnits="userSpaceOnUse">
<stop stop-color="#FFB951"/>
<stop offset="0.798647" stop-color="#FFD569" stop-opacity="0"/>
</linearGradient>
<linearGradient id="paint2_linear_145_108" x1="80.6312" y1="157.188" x2="52.496" y2="134.094" gradientUnits="userSpaceOnUse">
<stop stop-color="white" stop-opacity="0"/>
<stop offset="0.911458" stop-color="#FFFFFE"/>
</linearGradient>
<radialGradient id="paint3_diamond_145_108" cx="0" cy="0" r="1" gradientUnits="userSpaceOnUse" gradientTransform="translate(141.02 119.338) rotate(-90) scale(78.5548 55.2473)">
<stop stop-color="white"/>
<stop offset="1" stop-color="white" stop-opacity="0"/>
</radialGradient>
<linearGradient id="paint4_linear_145_108" x1="210" y1="94" x2="202" y2="110" gradientUnits="userSpaceOnUse">
<stop stop-color="white"/>
<stop offset="1" stop-color="white" stop-opacity="0"/>
</linearGradient>
</defs>
</svg>
