<svg width="221" height="186" viewBox="0 0 221 186" fill="none" xmlns="http://www.w3.org/2000/svg">
<path d="M190.902 2.49144C206.234 -4.5122 221.92 11.5129 214.59 26.6917L185.31 87.3227C182.696 92.7353 182.957 99.0954 186.004 104.276L217.507 157.835C225.718 171.794 212.758 188.649 197.158 184.299L129.952 165.562C126.94 164.722 123.761 164.681 120.729 165.444L43.9743 184.741C29.8191 188.3 17.5364 174.417 22.7937 160.801L44.4283 104.768C46.5527 99.2663 45.8469 93.0725 42.539 88.1895L3.37443 30.3761C-6.57821 15.6844 8.48562 -3.02235 24.9619 3.56817L105.02 35.5915C109.59 37.4192 114.708 37.2964 119.184 35.2516L190.902 2.49144Z" fill="url(#paint0_linear_60_62)" fill-opacity="0.5"/>
<defs>
<linearGradient id="paint0_linear_60_62" x1="96.8523" y1="-25.1359" x2="123.667" y2="161.801" gradientUnits="userSpaceOnUse">
<stop offset="0.339776" stop-color="white"/>
<stop offset="1" stop-color="white" stop-opacity="0"/>
</linearGradient>
</defs>
</svg>
